<?xml version="1.0" encoding="UTF-8" standalone="no"?>
<svg
   xmlns:dc="http://purl.org/dc/elements/1.1/"
   xmlns:cc="http://creativecommons.org/ns#"
   xmlns:rdf="http://www.w3.org/1999/02/22-rdf-syntax-ns#"
   xmlns:svg="http://www.w3.org/2000/svg"
   xmlns="http://www.w3.org/2000/svg"
   xmlns:sodipodi="http://sodipodi.sourceforge.net/DTD/sodipodi-0.dtd"
   xmlns:inkscape="http://www.inkscape.org/namespaces/inkscape"
   width="150pt"
   version="1.1"
   height="150pt"
   viewBox="0 0 372 143"
   id="svg3080"
   inkscape:version="0.48.2 r9819"
   sodipodi:docname="logo__small_color-page001.svg">
  <metadata
     id="metadata3117">
    <rdf:RDF>
      <cc:Work
         rdf:about="">
        <dc:format>image/svg+xml</dc:format>
        <dc:type
           rdf:resource="http://purl.org/dc/dcmitype/StillImage" />
      </cc:Work>
    </rdf:RDF>
  </metadata>
  <sodipodi:namedview
     pagecolor="#ffffff"
     bordercolor="#666666"
     borderopacity="1"
     objecttolerance="10"
     gridtolerance="10"
     guidetolerance="10"
     inkscape:pageopacity="0"
     inkscape:pageshadow="0"
     inkscape:window-width="1600"
     inkscape:window-height="838"
     id="namedview3115"
     showgrid="false"
     inkscape:zoom="0.88806529"
     inkscape:cx="1.8914879"
     inkscape:cy="-22.912272"
     inkscape:window-x="-8"
     inkscape:window-y="-8"
     inkscape:window-maximized="1"
     inkscape:current-layer="svg3080"
     inkscape:snap-bbox="true" />
  <defs
     id="defs3082" />
  <g
     id="Background"
     transform="matrix(3.9160513,0,0,3.9160513,-386.60905,-215.53163)">
    <g
       id="Logo"
       clip-path="external_url_login(#Clip0)"
       transform="matrix(0.99999877,0,0,1,-1.0702707,1.6298797)">
      <path
         style="fill:#438f1b;fill-rule:nonzero;stroke:none"
         d="M 62.246,13.4463 C 61.958,10.9502 61.547,9.0059 61.03,7.628 60.518,6.2461 59.752,5.042 58.722,4.0391 57.106,2.4463 54.534,1.3819 51.021,0.8292 47.51,0.2774 41.464,0 32.886,0 22.451,0.0264 15.062,0.3643 10.737,1.0303 6.007,1.7452 2.973,4.0772 1.657,8.0538 0.552,11.4004 0,17.084 0,25.0606 c 0,6.7598 0.251,11.5644 0.753,14.4102 0.501,2.8486 1.506,5.041 2.997,6.6093 1.129,1.2041 2.408,2.0821 3.85,2.6465 1.456,0.5654 3.425,0.9785 5.921,1.2178 1.442,0.125 4.464,0.251 9.056,0.3633 1.156,0.0302 2.285,0.0586 3.387,0.081 1.547,-0.2803 2.231,-0.9717 2.521,-2.542 0.178,-0.9843 0.32,-2.1308 0.437,-3.3955 -4.263,-0.0478 -8.107,-0.1855 -11.5,-0.415 C 14.825,43.8624 12.919,43.6221 11.726,43.2969 10.524,42.9825 9.608,42.4678 8.967,41.754 8.152,40.8995 7.6,39.1954 7.3,36.6612 6.987,34.129 6.836,30.0918 6.836,24.5459 c 0,-5.3925 0.275,-9.4824 0.84,-12.2783 0.351,-1.7304 0.941,-2.997 1.781,-3.7627 0.853,-0.7773 2.232,-1.3174 4.139,-1.6425 3.287,-0.5645 8.429,-0.8399 15.44,-0.8399 6.898,0.0234 11.563,0.0752 13.998,0.1621 2.419,0.0869 4.602,0.2764 6.534,0.5772 3.309,0.5146 5.204,2.1445 5.694,4.8799 0.488,2.6962 0.739,7.3486 0.739,13.9326 0,5.3945 -0.275,9.6591 -0.841,12.7939 -0.538,2.9199 -2.256,4.627 -5.154,5.1182 -1.968,0.3545 -4.588,0.6103 -7.818,0.7734 -0.152,2.2686 -0.371,4.2061 -0.665,5.8154 -0.021,0.1172 -0.047,0.2256 -0.069,0.3379 4.449,-0.122 7.876,-0.3789 10.232,-0.7841 3.362,-0.5752 5.784,-1.6416 7.25,-3.211 1.429,-1.4668 2.421,-3.7978 2.997,-6.9726 0.578,-3.1612 0.867,-7.8379 0.867,-14.0088 0,-4.8272 -0.19,-8.8291 -0.554,-11.9903 z"
         id="path3097"
         inkscape:connector-curvature="0"
         transform="translate(127.378,41.3896)" />
      <path
         style="fill:#ee7200;fill-rule:nonzero;stroke:none"
         d="M 62.248,13.417 C 61.957,10.9209 61.545,8.9765 61.03,7.5976 60.517,6.2168 59.751,5.0127 58.723,4.0097 57.104,2.417 54.534,1.3515 51.021,0.7998 48.141,0.3466 43.528,0.083 37.24,0 c -1.508,0.3086 -2.006,0.6923 -2.093,0.7714 -0.05,0.045 -0.488,0.4825 -0.806,2.044 -0.18,0.8955 -0.329,1.9687 -0.447,3.2012 4.279,0.0273 7.329,0.0732 9.139,0.1377 2.421,0.0879 4.602,0.2773 6.535,0.5771 3.309,0.5147 5.204,2.1445 5.694,4.8799 0.488,2.6963 0.738,7.3486 0.738,13.9336 0,5.3926 -0.274,9.6592 -0.84,12.7939 -0.539,2.92 -2.256,4.628 -5.154,5.1162 -3.675,0.6651 -9.546,0.9903 -17.635,0.9903 -5.682,0 -10.661,-0.1494 -14.949,-0.4395 C 14.825,43.833 12.919,43.5927 11.726,43.2675 10.524,42.9511 9.608,42.4384 8.967,41.7255 8.152,40.8711 7.6,39.166 7.299,36.6298 6.987,34.0976 6.836,30.0595 6.836,24.5166 6.836,19.123 7.111,15.0341 7.676,12.2382 8.027,10.5068 8.617,9.2412 9.457,8.4755 10.31,7.6982 11.688,7.1582 13.596,6.833 15.388,6.5254 17.75,6.3076 20.647,6.1679 20.817,3.8759 21.061,1.8798 21.384,0.1728 16.818,0.3418 13.246,0.6142 10.737,1 6.007,1.7158 2.973,4.0468 1.657,8.0244 0.552,11.372 0,17.0547 0,25.0302 c 0,6.7608 0.25,11.5655 0.753,14.4112 0.5,2.8476 1.505,5.041 2.997,6.6084 1.129,1.205 2.408,2.084 3.85,2.6476 1.456,0.564 3.425,0.979 5.921,1.217 1.442,0.125 4.464,0.251 9.055,0.363 4.603,0.124 8.779,0.189 12.555,0.189 7.662,0 13.181,-0.287 16.555,-0.866 3.36,-0.576 5.783,-1.6444 7.249,-3.2118 1.43,-1.4668 2.42,-3.7978 2.998,-6.9716 0.577,-3.1622 0.867,-7.8409 0.867,-14.0108 0,-4.8271 -0.189,-8.8291 -0.552,-11.9892 z"
         transform="translate(103.835,51.4766)"
         id="path3095"
         inkscape:connector-curvature="0" />
    </g>
  </g>
</svg>
